<svg xmlns="http://www.w3.org/2000/svg" xmlns:xlink="http://www.w3.org/1999/xlink" style="isolation:isolate" viewBox="0 0 170 170" width="170" height="170"><path d=" M 10 85 C 10 43.606 43.606 10 85 10 C 126.394 10 160 43.606 160 85 C 160 126.394 126.394 160 85 160 C 43.606 160 10 126.394 10 85 Z " fill="none" vector-effect="non-scaling-stroke" stroke-width="2.99" stroke="rgb(255,255,255)" stroke-linejoin="miter" stroke-linecap="square" stroke-miterlimit="3"/><path d=" M 69.121 108.229 L 69.121 108.229 L 69.121 108.229 Q 71.121 111.679 71.121 114.858 L 71.121 114.858 L 71.121 114.858 Q 71.121 115.573 71.001 116.168 L 71.001 116.168 L 71.001 116.168 Q 70.881 116.764 70.721 117.4 L 70.721 117.4 L 70.721 117.4 Q 69.361 117.2 67.881 117.2 L 67.881 117.2 L 67.881 117.2 Q 66.401 117.2 64.801 117.2 L 64.801 117.2 L 64.801 117.2 Q 62.881 117.2 60.921 117.2 L 60.921 117.2 L 60.921 117.2 Q 58.961 117.2 56.561 117.455 L 56.561 117.455 L 56.561 117.455 Q 54.161 117.71 51.201 118.135 L 51.201 118.135 L 51.201 118.135 Q 48.241 118.56 44.321 119.24 L 44.321 119.24 L 44.321 119.24 Q 42.481 118.6 40.641 116.72 L 40.641 116.72 L 40.641 116.72 Q 38.801 114.84 37.201 112.2 L 37.201 112.2 L 37.201 112.2 Q 38.001 110.44 39.201 107.84 L 39.201 107.84 L 39.201 107.84 Q 40.401 105.24 42.001 101.52 L 42.001 101.52 L 42.001 101.52 Q 43.601 97.8 45.561 92.8 L 45.561 92.8 L 45.561 92.8 Q 47.521 87.8 49.761 81.24 L 49.761 81.24 L 49.761 81.24 Q 51.201 76.92 52.241 73.64 L 52.241 73.64 L 52.241 73.64 Q 53.281 70.36 54.121 67.28 L 54.121 67.28 L 54.121 67.28 Q 54.961 64.2 55.761 60.84 L 55.761 60.84 L 55.761 60.84 Q 56.561 57.48 57.521 53.08 L 57.521 53.08 L 57.521 53.08 Q 60.721 53.72 63.081 55.44 L 63.081 55.44 L 63.081 55.44 Q 65.441 57.16 67.601 60.36 L 67.601 60.36 L 67.601 60.36 Q 66.961 61.399 65.921 63.717 L 65.921 63.717 L 65.921 63.717 Q 64.881 66.036 63.481 69.353 L 63.481 69.353 L 63.481 69.353 Q 62.081 72.67 60.401 76.867 L 60.401 76.867 L 60.401 76.867 Q 58.721 81.064 56.881 85.86 L 56.881 85.86 L 56.881 85.86 Q 55.121 90.576 53.441 94.733 L 53.441 94.733 L 53.441 94.733 Q 51.761 98.89 50.441 102.247 L 50.441 102.247 L 50.441 102.247 Q 49.121 105.605 48.321 108.003 L 48.321 108.003 L 48.321 108.003 Q 47.521 110.401 47.521 111.6 L 47.521 111.6 L 47.521 111.6 Q 48.801 111.6 49.841 111.519 L 49.841 111.519 L 49.841 111.519 Q 50.881 111.439 52.001 111.238 L 52.001 111.238 L 52.001 111.238 Q 53.121 111.037 54.441 110.756 L 54.441 110.756 L 54.441 110.756 Q 55.761 110.474 57.601 109.993 L 57.601 109.993 L 57.601 109.993 Q 59.201 109.592 60.561 109.311 L 60.561 109.311 L 60.561 109.311 Q 61.921 109.031 63.241 108.83 L 63.241 108.83 L 63.241 108.83 Q 64.561 108.63 65.961 108.51 L 65.961 108.51 L 65.961 108.51 Q 67.361 108.39 69.121 108.229 Z  M 133.761 68.64 L 133.761 68.64 L 133.761 68.64 Q 133.761 72.48 132.041 75.88 L 132.041 75.88 L 132.041 75.88 Q 130.321 79.28 127.281 81.96 L 127.281 81.96 L 127.281 81.96 Q 124.241 84.64 120.161 86.48 L 120.161 86.48 L 120.161 86.48 Q 116.081 88.32 111.281 88.96 L 111.281 88.96 L 111.281 88.96 Q 112.481 92.56 114.201 96.36 L 114.201 96.36 L 114.201 96.36 Q 115.921 100.16 117.921 103.68 L 117.921 103.68 L 117.921 103.68 Q 119.921 107.2 122.081 110.16 L 122.081 110.16 L 122.081 110.16 Q 124.241 113.12 126.321 115.04 L 126.321 115.04 L 126.321 115.04 Q 125.921 115.84 125.161 116.64 L 125.161 116.64 L 125.161 116.64 Q 124.401 117.44 123.401 118.12 L 123.401 118.12 L 123.401 118.12 Q 122.401 118.8 121.321 119.24 L 121.321 119.24 L 121.321 119.24 Q 120.241 119.68 119.281 119.68 L 119.281 119.68 L 119.281 119.68 Q 117.521 119.68 115.921 118 L 115.921 118 L 115.921 118 Q 114.321 116.32 112.681 112.68 L 112.681 112.68 L 112.681 112.68 Q 111.041 109.04 109.241 103.24 L 109.241 103.24 L 109.241 103.24 Q 107.441 97.44 105.281 89.28 L 105.281 89.28 L 105.281 89.28 Q 104.401 89.28 103.521 89.28 L 103.521 89.28 L 103.521 89.28 Q 102.641 89.28 102.161 89.12 L 102.161 89.12 L 102.161 89.12 Q 101.601 88.8 100.961 88 L 100.961 88 L 100.961 88 Q 98.801 92.64 97.121 96.72 L 97.121 96.72 L 97.121 96.72 Q 95.441 100.8 94.121 104.6 L 94.121 104.6 L 94.121 104.6 Q 92.801 108.4 91.801 111.96 L 91.801 111.96 L 91.801 111.96 Q 90.801 115.52 90.081 119.2 L 90.081 119.2 L 90.081 119.2 Q 87.361 118.56 85.361 116.88 L 85.361 116.88 L 85.361 116.88 Q 83.361 115.2 81.601 112.16 L 81.601 112.16 L 81.601 112.16 Q 81.921 111.44 82.281 110.76 L 82.281 110.76 L 82.281 110.76 Q 82.641 110.08 83.201 108.84 L 83.201 108.84 L 83.201 108.84 Q 83.761 107.6 84.601 105.68 L 84.601 105.68 L 84.601 105.68 Q 85.441 103.76 86.841 100.56 L 86.841 100.56 L 86.841 100.56 Q 88.241 97.36 90.201 92.72 L 90.201 92.72 L 90.201 92.72 Q 92.161 88.08 94.961 81.44 L 94.961 81.44 L 94.961 81.44 Q 96.241 78.48 97.161 76.24 L 97.161 76.24 L 97.161 76.24 Q 98.081 74 98.801 71.96 L 98.801 71.96 L 98.801 71.96 Q 99.521 69.92 100.121 67.88 L 100.121 67.88 L 100.121 67.88 Q 100.721 65.84 101.361 63.2 L 101.361 63.2 L 101.361 63.2 Q 97.681 64.48 94.521 66.04 L 94.521 66.04 L 94.521 66.04 Q 91.361 67.6 89.281 69.36 L 89.281 69.36 L 89.281 69.36 Q 88.561 68.88 87.801 67.92 L 87.801 67.92 L 87.801 67.92 Q 87.041 66.96 86.401 65.8 L 86.401 65.8 L 86.401 65.8 Q 85.761 64.64 85.281 63.44 L 85.281 63.44 L 85.281 63.44 Q 84.801 62.24 84.721 61.28 L 84.721 61.28 L 84.721 61.28 Q 87.121 59.68 90.601 58.32 L 90.601 58.32 L 90.601 58.32 Q 94.081 56.96 98.001 55.96 L 98.001 55.96 L 98.001 55.96 Q 101.921 54.96 106.001 54.4 L 106.001 54.4 L 106.001 54.4 Q 110.081 53.84 113.601 53.84 L 113.601 53.84 L 113.601 53.84 Q 123.201 53.84 128.481 57.8 L 128.481 57.8 L 128.481 57.8 Q 133.761 61.76 133.761 68.64 Z  M 113.281 60.4 L 114.241 61.92 L 114.241 61.92 Q 113.681 62.64 112.481 64.8 L 112.481 64.8 L 112.481 64.8 Q 111.281 66.96 109.721 69.96 L 109.721 69.96 L 109.721 69.96 Q 108.161 72.96 106.441 76.48 L 106.441 76.48 L 106.441 76.48 Q 104.721 80 103.121 83.44 L 103.121 83.44 L 103.121 83.44 Q 109.121 83.44 114.161 82.32 L 114.161 82.32 L 114.161 82.32 Q 119.201 81.2 122.881 79.16 L 122.881 79.16 L 122.881 79.16 Q 126.561 77.12 128.601 74.36 L 128.601 74.36 L 128.601 74.36 Q 130.641 71.6 130.641 68.24 L 130.641 68.24 L 130.641 68.24 Q 130.641 64.24 127.761 62.12 L 127.761 62.12 L 127.761 62.12 Q 124.881 60 118.881 60 L 118.881 60 L 118.881 60 Q 117.521 60 116.161 60.12 L 116.161 60.12 L 116.161 60.12 Q 114.801 60.24 113.281 60.4 L 113.281 60.4 Z " fill-rule="evenodd" fill="rgb(255,255,255)"/></svg>